<svg xmlns="http://www.w3.org/2000/svg" viewBox="0 0 375 375" role="img" aria-label="Via Viator"><defs><clipPath id="a"><path d="M.484 .195h174v151.71H.484z"/></clipPath><clipPath id="b"><path d="M.32 32h117.68v134.96H.32z"/></clipPath><clipPath id="c"><path d="M30.316 166.793 10.469 152.598l18.519-25.887 19.848 14.195z"/></clipPath></defs><g transform="translate(100 104)"><g clip-path="url(#a)"><path fill="currentColor" d="M174.512.203 87.262 151.586l-13.602-22.544 3.703-5.953 9.793 16.254L163.699 6.496H81.277l14.754 25.262h27.067L69.102 120.711.484.203h41.688l41.789 69.844-3.637 5.847L38.637 6.496H11.23l58.043 101.973 42.742-70.387H92.461L70.359.203Z"/></g><g clip-path="url(#b)"><path stroke="currentColor" stroke-width="6" fill="none" transform="matrix(.57619 -.89085 .89085 .57619 30.534 141.775)" d="M0 3h84.018"/></g><g clip-path="url(#c)"><path fill="currentColor" d="m20.605 159.84 8.817-32.852 5.082 13.426 14.347.473z"/></g></g></svg>
