<svg xmlns="http://www.w3.org/2000/svg" viewBox="0 0 375 270" preserveAspectRatio="xMidYMid meet" role="img" aria-labelledby="vv-logo-stack-title">
  <title id="vv-logo-stack-title">Via Viator</title>
  <defs>
    <clipPath id="vv-logo-stack-mark">
      <path d="M 125.988281 93.902344 L 248.988281 93.902344 L 248.988281 201 L 125.988281 201 Z"/>
    </clipPath>
    <clipPath id="vv-logo-stack-arrow">
      <path d="M 147.078125 211.671875 L 133.046875 201.636719 L 146.136719 183.335938 L 160.167969 193.375 Z"/>
    </clipPath>
  </defs>

  <!-- Mark V (czerwony) -->
  <g clip-path="url(#vv-logo-stack-mark)">
    <path
      class="vv-logo-stack__mark"
      fill="currentColor"
      d="M 249.011719 93.910156 L 187.332031 200.921875 L 177.714844 184.984375 L 180.335938 180.78125 L 187.257812 192.269531 L 241.367188 98.355469 L 183.101562 98.355469 L 193.53125 116.214844 L 212.664062 116.214844 L 174.496094 179.097656 L 125.988281 93.910156 L 155.457031 93.910156 L 185 143.28125 L 182.425781 147.414062 L 152.957031 98.355469 L 133.582031 98.355469 L 174.613281 170.445312 L 204.828125 120.6875 L 191.007812 120.6875 L 175.382812 93.910156 Z"/>
  </g>

  <!-- Strzałka diagonalna w marku (czerwona) -->
  <path
    class="vv-logo-stack__mark"
    fill="none"
    stroke="currentColor"
    stroke-width="6"
    stroke-linejoin="miter"
    stroke-miterlimit="4"
    transform="matrix(0.40732, -0.629754, 0.629754, 0.40732, 147.229771, 193.986873)"
    d="M 0.00067828 2.996629 L 84.018403 2.997569"/>

  <!-- Grot strzałki (czerwony) -->
  <g clip-path="url(#vv-logo-stack-arrow)">
    <path
      class="vv-logo-stack__mark"
      fill="currentColor"
      fill-rule="evenodd"
      d="M 140.210938 206.757812 L 146.445312 183.53125 L 150.035156 193.023438 L 160.179688 193.359375 Z"/>
  </g>

  <!-- Wordmark „VIA" (czerwone) -->
  <g class="vv-logo-stack__via" fill="currentColor">
    <g transform="translate(106.575238, 257.419831)">
      <path d="M 25.5625 -23.671875 L 15.3125 0 L 9.90625 0 L -0.296875 -23.671875 L 5.609375 -23.671875 L 12.8125 -6.765625 L 20.125 -23.671875 Z M 25.5625 -23.671875"/>
    </g>
    <g transform="translate(136.868858, 257.419831)">
      <path d="M 2.8125 -23.671875 L 8.28125 -23.671875 L 8.28125 0 L 2.8125 0 Z M 2.8125 -23.671875"/>
    </g>
    <g transform="translate(153.030512, 257.419831)">
      <path d="M 18.390625 -5.078125 L 7.40625 -5.078125 L 5.3125 0 L -0.296875 0 L 10.25 -23.671875 L 15.65625 -23.671875 L 26.234375 0 L 20.484375 0 Z M 16.671875 -9.234375 L 12.921875 -18.296875 L 9.15625 -9.234375 Z M 16.671875 -9.234375"/>
    </g>
  </g>

  <!-- Wordmark „TOR" (białe na ciemnym tle — currentColor steruje z zewnątrz) -->
  <g class="vv-logo-stack__tor" fill="currentColor">
    <g transform="translate(184.001014, 257.419831)">
      <path d="M 7.703125 -19.203125 L 0.140625 -19.203125 L 0.140625 -23.671875 L 20.765625 -23.671875 L 20.765625 -19.203125 L 13.1875 -19.203125 L 13.1875 0 L 7.703125 0 Z M 7.703125 -19.203125"/>
    </g>
    <g transform="translate(209.967142, 257.419831)">
      <path d="M 14.265625 0.40625 C 11.804688 0.40625 9.59375 -0.117188 7.625 -1.171875 C 5.65625 -2.234375 4.109375 -3.695312 2.984375 -5.5625 C 1.867188 -7.425781 1.3125 -9.515625 1.3125 -11.828125 C 1.3125 -14.148438 1.867188 -16.238281 2.984375 -18.09375 C 4.109375 -19.957031 5.65625 -21.421875 7.625 -22.484375 C 9.59375 -23.546875 11.804688 -24.078125 14.265625 -24.078125 C 16.722656 -24.078125 18.929688 -23.546875 20.890625 -22.484375 C 22.859375 -21.421875 24.40625 -19.957031 25.53125 -18.09375 C 26.65625 -16.238281 27.21875 -14.148438 27.21875 -11.828125 C 27.21875 -9.515625 26.65625 -7.425781 25.53125 -5.5625 C 24.40625 -3.695312 22.859375 -2.234375 20.890625 -1.171875 C 18.929688 -0.117188 16.722656 0.40625 14.265625 0.40625 Z M 14.265625 -4.265625 C 15.660156 -4.265625 16.921875 -4.582031 18.046875 -5.21875 C 19.179688 -5.863281 20.066406 -6.757812 20.703125 -7.90625 C 21.347656 -9.0625 21.671875 -10.367188 21.671875 -11.828125 C 21.671875 -13.296875 21.347656 -14.601562 20.703125 -15.75 C 20.066406 -16.90625 19.179688 -17.800781 18.046875 -18.4375 C 16.921875 -19.082031 15.660156 -19.40625 14.265625 -19.40625 C 12.867188 -19.40625 11.609375 -19.082031 10.484375 -18.4375 C 9.359375 -17.800781 8.472656 -16.90625 7.828125 -15.75 C 7.179688 -14.601562 6.859375 -13.296875 6.859375 -11.828125 C 6.859375 -10.367188 7.179688 -9.0625 7.828125 -7.90625 C 8.472656 -6.757812 9.359375 -5.863281 10.484375 -5.21875 C 11.609375 -4.582031 12.867188 -4.265625 14.265625 -4.265625 Z M 14.265625 -4.265625"/>
    </g>
    <g transform="translate(243.573997, 257.419831)">
      <path d="M 17.890625 0 L 13.328125 -6.59375 L 8.28125 -6.59375 L 8.28125 0 L 2.8125 0 L 2.8125 -23.671875 L 13.046875 -23.671875 C 15.148438 -23.671875 16.972656 -23.320312 18.515625 -22.625 C 20.054688 -21.925781 21.242188 -20.929688 22.078125 -19.640625 C 22.910156 -18.359375 23.328125 -16.835938 23.328125 -15.078125 C 23.328125 -13.316406 22.90625 -11.800781 22.0625 -10.53125 C 21.21875 -9.257812 20.019531 -8.285156 18.46875 -7.609375 L 23.765625 0 Z M 17.78125 -15.078125 C 17.78125 -16.410156 17.351562 -17.429688 16.5 -18.140625 C 15.644531 -18.847656 14.394531 -19.203125 12.75 -19.203125 L 8.28125 -19.203125 L 8.28125 -10.953125 L 12.75 -10.953125 C 14.394531 -10.953125 15.644531 -11.3125 16.5 -12.03125 C 17.351562 -12.757812 17.78125 -13.773438 17.78125 -15.078125 Z M 17.78125 -15.078125"/>
    </g>
  </g>
</svg>
