<svg xmlns="http://www.w3.org/2000/svg" xmlns:xlink="http://www.w3.org/1999/xlink" width="500" zoomAndPan="magnify" viewBox="0 0 375 374.999991" height="500" preserveAspectRatio="xMidYMid meet" version="1.0"><defs><g/><clipPath id="7e7278e6d1"><rect x="0" width="228" y="0" height="53"/></clipPath><clipPath id="50a6650078"><rect x="0" width="225" y="0" height="22"/></clipPath></defs><rect x="-37.5" width="450" fill="#ffffff" y="-37.499999" height="449.999989" fill-opacity="1"/><rect x="-37.5" width="450" fill="#000000" y="-37.499999" height="449.999989" fill-opacity="1"/><g transform="matrix(1, 0, 0, 1, 77, 152)"><g clip-path="url(#7e7278e6d1)"><g fill="#f13223" fill-opacity="1"><g transform="translate(2.693005, 41.267018)"><g><path d="M 32.421875 -30.015625 L 19.421875 0 L 12.5625 0 L -0.390625 -30.015625 L 7.125 -30.015625 L 16.25 -8.578125 L 25.515625 -30.015625 Z M 32.421875 -30.015625 "/></g></g></g><g fill="#f13223" fill-opacity="1"><g transform="translate(43.174131, 41.267018)"><g><path d="M 3.5625 -30.015625 L 10.515625 -30.015625 L 10.515625 0 L 3.5625 0 Z M 3.5625 -30.015625 "/></g></g></g><g fill="#f13223" fill-opacity="1"><g transform="translate(65.732194, 41.267018)"><g><path d="M 23.328125 -6.4375 L 9.390625 -6.4375 L 6.734375 0 L -0.390625 0 L 13 -30.015625 L 19.859375 -30.015625 L 33.28125 0 L 25.984375 0 Z M 21.140625 -11.703125 L 16.390625 -23.203125 L 11.625 -11.703125 Z M 21.140625 -11.703125 "/></g></g></g><g fill="#ffffff" fill-opacity="1"><g transform="translate(107.078394, 41.267018)"><g><path d="M 9.78125 -24.359375 L 0.171875 -24.359375 L 0.171875 -30.015625 L 26.328125 -30.015625 L 26.328125 -24.359375 L 16.734375 -24.359375 L 16.734375 0 L 9.78125 0 Z M 9.78125 -24.359375 "/></g></g></g><g fill="#ffffff" fill-opacity="1"><g transform="translate(142.071117, 41.267018)"><g><path d="M 18.09375 0.515625 C 14.976562 0.515625 12.171875 -0.15625 9.671875 -1.5 C 7.171875 -2.84375 5.210938 -4.691406 3.796875 -7.046875 C 2.378906 -9.410156 1.671875 -12.066406 1.671875 -15.015625 C 1.671875 -17.953125 2.378906 -20.597656 3.796875 -22.953125 C 5.210938 -25.316406 7.171875 -27.171875 9.671875 -28.515625 C 12.171875 -29.859375 14.976562 -30.53125 18.09375 -30.53125 C 21.21875 -30.53125 24.019531 -29.859375 26.5 -28.515625 C 28.988281 -27.171875 30.945312 -25.316406 32.375 -22.953125 C 33.8125 -20.597656 34.53125 -17.953125 34.53125 -15.015625 C 34.53125 -12.066406 33.8125 -9.410156 32.375 -7.046875 C 30.945312 -4.691406 28.988281 -2.84375 26.5 -1.5 C 24.019531 -0.15625 21.21875 0.515625 18.09375 0.515625 Z M 18.09375 -5.40625 C 19.875 -5.40625 21.476562 -5.8125 22.90625 -6.625 C 24.332031 -7.4375 25.453125 -8.570312 26.265625 -10.03125 C 27.085938 -11.488281 27.5 -13.148438 27.5 -15.015625 C 27.5 -16.867188 27.085938 -18.523438 26.265625 -19.984375 C 25.453125 -21.441406 24.332031 -22.578125 22.90625 -23.390625 C 21.476562 -24.210938 19.875 -24.625 18.09375 -24.625 C 16.320312 -24.625 14.722656 -24.210938 13.296875 -23.390625 C 11.867188 -22.578125 10.742188 -21.441406 9.921875 -19.984375 C 9.109375 -18.523438 8.703125 -16.867188 8.703125 -15.015625 C 8.703125 -13.148438 9.109375 -11.488281 9.921875 -10.03125 C 10.742188 -8.570312 11.867188 -7.4375 13.296875 -6.625 C 14.722656 -5.8125 16.320312 -5.40625 18.09375 -5.40625 Z M 18.09375 -5.40625 "/></g></g></g><g fill="#ffffff" fill-opacity="1"><g transform="translate(186.754299, 41.267018)"><g><path d="M 22.6875 0 L 16.90625 -8.359375 L 10.515625 -8.359375 L 10.515625 0 L 3.5625 0 L 3.5625 -30.015625 L 16.5625 -30.015625 C 19.21875 -30.015625 21.523438 -29.570312 23.484375 -28.6875 C 25.441406 -27.800781 26.945312 -26.539062 28 -24.90625 C 29.0625 -23.28125 29.59375 -21.351562 29.59375 -19.125 C 29.59375 -16.894531 29.054688 -14.972656 27.984375 -13.359375 C 26.910156 -11.742188 25.390625 -10.507812 23.421875 -9.65625 L 30.15625 0 Z M 22.5625 -19.125 C 22.5625 -20.8125 22.015625 -22.101562 20.921875 -23 C 19.835938 -23.90625 18.253906 -24.359375 16.171875 -24.359375 L 10.515625 -24.359375 L 10.515625 -13.890625 L 16.171875 -13.890625 C 18.253906 -13.890625 19.835938 -14.347656 20.921875 -15.265625 C 22.015625 -16.179688 22.5625 -17.46875 22.5625 -19.125 Z M 22.5625 -19.125 "/></g></g></g></g></g><g transform="matrix(1, 0, 0, 1, 78, 201)"><g clip-path="url(#50a6650078)"><g fill="#ffffff" fill-opacity="1"><g transform="translate(0.923488, 16.053794)"><g><path d="M 6.03125 -11.171875 C 7.476562 -11.171875 8.613281 -10.820312 9.4375 -10.125 C 10.269531 -9.4375 10.6875 -8.488281 10.6875 -7.28125 C 10.6875 -6.0625 10.269531 -5.101562 9.4375 -4.40625 C 8.613281 -3.71875 7.476562 -3.375 6.03125 -3.375 L 3.265625 -3.375 L 3.265625 0 L 1.671875 0 L 1.671875 -11.171875 Z M 5.984375 -4.765625 C 6.992188 -4.765625 7.765625 -4.976562 8.296875 -5.40625 C 8.828125 -5.84375 9.09375 -6.46875 9.09375 -7.28125 C 9.09375 -8.082031 8.828125 -8.695312 8.296875 -9.125 C 7.765625 -9.5625 6.992188 -9.78125 5.984375 -9.78125 L 3.265625 -9.78125 L 3.265625 -4.765625 Z M 5.984375 -4.765625 "/></g></g></g><g fill="#ffffff" fill-opacity="1"><g transform="translate(19.450302, 16.053794)"><g><path d="M 9.140625 0 L 6.734375 -3.4375 C 6.429688 -3.40625 6.195312 -3.390625 6.03125 -3.390625 L 3.265625 -3.390625 L 3.265625 0 L 1.671875 0 L 1.671875 -11.171875 L 6.03125 -11.171875 C 7.476562 -11.171875 8.613281 -10.820312 9.4375 -10.125 C 10.269531 -9.4375 10.6875 -8.488281 10.6875 -7.28125 C 10.6875 -6.414062 10.472656 -5.675781 10.046875 -5.0625 C 9.617188 -4.457031 9.015625 -4.019531 8.234375 -3.75 L 10.875 0 Z M 5.984375 -4.75 C 6.992188 -4.75 7.765625 -4.96875 8.296875 -5.40625 C 8.828125 -5.84375 9.09375 -6.46875 9.09375 -7.28125 C 9.09375 -8.082031 8.828125 -8.695312 8.296875 -9.125 C 7.765625 -9.5625 6.992188 -9.78125 5.984375 -9.78125 L 3.265625 -9.78125 L 3.265625 -4.75 Z M 5.984375 -4.75 "/></g></g></g><g fill="#ffffff" fill-opacity="1"><g transform="translate(38.056793, 16.053794)"><g><path d="M 10.015625 -1.390625 L 10.015625 0 L 0.6875 0 L 0.6875 -1.078125 L 7.703125 -9.78125 L 0.796875 -9.78125 L 0.796875 -11.171875 L 9.8125 -11.171875 L 9.8125 -10.078125 L 2.828125 -1.390625 Z M 10.015625 -1.390625 "/></g></g></g><g fill="#ffffff" fill-opacity="1"><g transform="translate(55.547869, 16.053794)"><g><path d="M 9.78125 -1.390625 L 9.78125 0 L 1.671875 0 L 1.671875 -11.171875 L 9.5625 -11.171875 L 9.5625 -9.78125 L 3.265625 -9.78125 L 3.265625 -6.34375 L 8.875 -6.34375 L 8.875 -5 L 3.265625 -5 L 3.265625 -1.390625 Z M 9.78125 -1.390625 "/></g></g></g><g fill="#ffffff" fill-opacity="1"><g transform="translate(73.246092, 16.053794)"><g><path d="M 17.453125 -11.171875 L 13.71875 0 L 12.046875 0 L 9 -8.921875 L 5.953125 0 L 4.25 0 L 0.515625 -11.171875 L 2.15625 -11.171875 L 5.171875 -2.09375 L 8.3125 -11.171875 L 9.78125 -11.171875 L 12.859375 -2.046875 L 15.9375 -11.171875 Z M 17.453125 -11.171875 "/></g></g></g><g fill="#ffffff" fill-opacity="1"><g transform="translate(98.210434, 16.053794)"><g><path d="M 6.71875 0.125 C 5.59375 0.125 4.578125 -0.117188 3.671875 -0.609375 C 2.765625 -1.109375 2.050781 -1.789062 1.53125 -2.65625 C 1.019531 -3.53125 0.765625 -4.503906 0.765625 -5.578125 C 0.765625 -6.648438 1.019531 -7.625 1.53125 -8.5 C 2.050781 -9.375 2.765625 -10.054688 3.671875 -10.546875 C 4.578125 -11.046875 5.59375 -11.296875 6.71875 -11.296875 C 7.832031 -11.296875 8.84375 -11.046875 9.75 -10.546875 C 10.65625 -10.054688 11.363281 -9.375 11.875 -8.5 C 12.382812 -7.632812 12.640625 -6.660156 12.640625 -5.578125 C 12.640625 -4.492188 12.382812 -3.519531 11.875 -2.65625 C 11.363281 -1.789062 10.65625 -1.109375 9.75 -0.609375 C 8.84375 -0.117188 7.832031 0.125 6.71875 0.125 Z M 6.71875 -1.296875 C 7.53125 -1.296875 8.265625 -1.476562 8.921875 -1.84375 C 9.578125 -2.21875 10.09375 -2.734375 10.46875 -3.390625 C 10.851562 -4.046875 11.046875 -4.773438 11.046875 -5.578125 C 11.046875 -6.390625 10.851562 -7.125 10.46875 -7.78125 C 10.09375 -8.4375 9.578125 -8.945312 8.921875 -9.3125 C 8.265625 -9.6875 7.53125 -9.875 6.71875 -9.875 C 5.894531 -9.875 5.148438 -9.6875 4.484375 -9.3125 C 3.828125 -8.945312 3.304688 -8.4375 2.921875 -7.78125 C 2.546875 -7.125 2.359375 -6.390625 2.359375 -5.578125 C 2.359375 -4.773438 2.546875 -4.046875 2.921875 -3.390625 C 3.304688 -2.734375 3.828125 -2.21875 4.484375 -1.84375 C 5.148438 -1.476562 5.894531 -1.296875 6.71875 -1.296875 Z M 7.6875 -14.15625 L 9.640625 -14.15625 L 6.953125 -12.078125 L 5.515625 -12.078125 Z M 7.6875 -14.15625 "/></g></g></g><g fill="#ffffff" fill-opacity="1"><g transform="translate(118.617508, 16.053794)"><g><path d="M 10.015625 -1.390625 L 10.015625 0 L 0.6875 0 L 0.6875 -1.078125 L 7.703125 -9.78125 L 0.796875 -9.78125 L 0.796875 -11.171875 L 9.8125 -11.171875 L 9.8125 -10.078125 L 2.828125 -1.390625 Z M 10.015625 -1.390625 "/></g></g></g><g fill="#ffffff" fill-opacity="1"><g transform="translate(136.108584, 16.053794)"><g/></g></g><g fill="#ffffff" fill-opacity="1"><g transform="translate(147.417074, 16.053794)"><g><path d="M 6.71875 0.125 C 5.59375 0.125 4.578125 -0.117188 3.671875 -0.609375 C 2.765625 -1.109375 2.050781 -1.789062 1.53125 -2.65625 C 1.019531 -3.53125 0.765625 -4.503906 0.765625 -5.578125 C 0.765625 -6.648438 1.019531 -7.625 1.53125 -8.5 C 2.050781 -9.375 2.765625 -10.054688 3.671875 -10.546875 C 4.578125 -11.046875 5.59375 -11.296875 6.71875 -11.296875 C 7.832031 -11.296875 8.84375 -11.046875 9.75 -10.546875 C 10.65625 -10.054688 11.363281 -9.375 11.875 -8.5 C 12.382812 -7.632812 12.640625 -6.660156 12.640625 -5.578125 C 12.640625 -4.492188 12.382812 -3.519531 11.875 -2.65625 C 11.363281 -1.789062 10.65625 -1.109375 9.75 -0.609375 C 8.84375 -0.117188 7.832031 0.125 6.71875 0.125 Z M 6.71875 -1.296875 C 7.53125 -1.296875 8.265625 -1.476562 8.921875 -1.84375 C 9.578125 -2.21875 10.09375 -2.734375 10.46875 -3.390625 C 10.851562 -4.046875 11.046875 -4.773438 11.046875 -5.578125 C 11.046875 -6.390625 10.851562 -7.125 10.46875 -7.78125 C 10.09375 -8.4375 9.578125 -8.945312 8.921875 -9.3125 C 8.265625 -9.6875 7.53125 -9.875 6.71875 -9.875 C 5.894531 -9.875 5.148438 -9.6875 4.484375 -9.3125 C 3.828125 -8.945312 3.304688 -8.4375 2.921875 -7.78125 C 2.546875 -7.125 2.359375 -6.390625 2.359375 -5.578125 C 2.359375 -4.773438 2.546875 -4.046875 2.921875 -3.390625 C 3.304688 -2.734375 3.828125 -2.21875 4.484375 -1.84375 C 5.148438 -1.476562 5.894531 -1.296875 6.71875 -1.296875 Z M 6.71875 -1.296875 "/></g></g></g><g fill="#ffffff" fill-opacity="1"><g transform="translate(167.824148, 16.053794)"><g><path d="M 4.921875 0.125 C 4.085938 0.125 3.28125 -0.00390625 2.5 -0.265625 C 1.71875 -0.523438 1.101562 -0.863281 0.65625 -1.28125 L 1.25 -2.515625 C 1.664062 -2.140625 2.207031 -1.832031 2.875 -1.59375 C 3.539062 -1.351562 4.222656 -1.234375 4.921875 -1.234375 C 5.847656 -1.234375 6.539062 -1.390625 7 -1.703125 C 7.457031 -2.015625 7.6875 -2.429688 7.6875 -2.953125 C 7.6875 -3.335938 7.5625 -3.648438 7.3125 -3.890625 C 7.0625 -4.128906 6.753906 -4.3125 6.390625 -4.4375 C 6.023438 -4.5625 5.503906 -4.703125 4.828125 -4.859375 C 3.992188 -5.066406 3.316406 -5.269531 2.796875 -5.46875 C 2.285156 -5.675781 1.84375 -5.988281 1.46875 -6.40625 C 1.101562 -6.820312 0.921875 -7.390625 0.921875 -8.109375 C 0.921875 -8.703125 1.078125 -9.238281 1.390625 -9.71875 C 1.703125 -10.195312 2.175781 -10.578125 2.8125 -10.859375 C 3.457031 -11.148438 4.253906 -11.296875 5.203125 -11.296875 C 5.859375 -11.296875 6.503906 -11.207031 7.140625 -11.03125 C 7.785156 -10.863281 8.335938 -10.625 8.796875 -10.3125 L 8.265625 -9.03125 C 7.796875 -9.320312 7.296875 -9.546875 6.765625 -9.703125 C 6.234375 -9.859375 5.710938 -9.9375 5.203125 -9.9375 C 4.296875 -9.9375 3.613281 -9.769531 3.15625 -9.4375 C 2.707031 -9.113281 2.484375 -8.691406 2.484375 -8.171875 C 2.484375 -7.785156 2.609375 -7.472656 2.859375 -7.234375 C 3.117188 -6.992188 3.4375 -6.804688 3.8125 -6.671875 C 4.195312 -6.546875 4.710938 -6.40625 5.359375 -6.25 C 6.203125 -6.050781 6.878906 -5.847656 7.390625 -5.640625 C 7.898438 -5.441406 8.335938 -5.132812 8.703125 -4.71875 C 9.066406 -4.300781 9.25 -3.742188 9.25 -3.046875 C 9.25 -2.460938 9.085938 -1.925781 8.765625 -1.4375 C 8.453125 -0.957031 7.96875 -0.578125 7.3125 -0.296875 C 6.664062 -0.015625 5.867188 0.125 4.921875 0.125 Z M 4.921875 0.125 "/></g></g></g><g fill="#ffffff" fill-opacity="1"><g transform="translate(184.741576, 16.053794)"><g><path d="M 6.71875 0.125 C 5.59375 0.125 4.578125 -0.117188 3.671875 -0.609375 C 2.765625 -1.109375 2.050781 -1.789062 1.53125 -2.65625 C 1.019531 -3.53125 0.765625 -4.503906 0.765625 -5.578125 C 0.765625 -6.648438 1.019531 -7.625 1.53125 -8.5 C 2.050781 -9.375 2.765625 -10.054688 3.671875 -10.546875 C 4.578125 -11.046875 5.59375 -11.296875 6.71875 -11.296875 C 7.832031 -11.296875 8.84375 -11.046875 9.75 -10.546875 C 10.65625 -10.054688 11.363281 -9.375 11.875 -8.5 C 12.382812 -7.632812 12.640625 -6.660156 12.640625 -5.578125 C 12.640625 -4.492188 12.382812 -3.519531 11.875 -2.65625 C 11.363281 -1.789062 10.65625 -1.109375 9.75 -0.609375 C 8.84375 -0.117188 7.832031 0.125 6.71875 0.125 Z M 6.71875 -1.296875 C 7.53125 -1.296875 8.265625 -1.476562 8.921875 -1.84375 C 9.578125 -2.21875 10.09375 -2.734375 10.46875 -3.390625 C 10.851562 -4.046875 11.046875 -4.773438 11.046875 -5.578125 C 11.046875 -6.390625 10.851562 -7.125 10.46875 -7.78125 C 10.09375 -8.4375 9.578125 -8.945312 8.921875 -9.3125 C 8.265625 -9.6875 7.53125 -9.875 6.71875 -9.875 C 5.894531 -9.875 5.148438 -9.6875 4.484375 -9.3125 C 3.828125 -8.945312 3.304688 -8.4375 2.921875 -7.78125 C 2.546875 -7.125 2.359375 -6.390625 2.359375 -5.578125 C 2.359375 -4.773438 2.546875 -4.046875 2.921875 -3.390625 C 3.304688 -2.734375 3.828125 -2.21875 4.484375 -1.84375 C 5.148438 -1.476562 5.894531 -1.296875 6.71875 -1.296875 Z M 7.6875 -14.15625 L 9.640625 -14.15625 L 6.953125 -12.078125 L 5.515625 -12.078125 Z M 7.6875 -14.15625 "/></g></g></g><g fill="#ffffff" fill-opacity="1"><g transform="translate(205.14865, 16.053794)"><g><path d="M 9.1875 -5.796875 C 9.832031 -5.609375 10.34375 -5.273438 10.71875 -4.796875 C 11.09375 -4.328125 11.28125 -3.734375 11.28125 -3.015625 C 11.28125 -2.046875 10.914062 -1.300781 10.1875 -0.78125 C 9.457031 -0.257812 8.394531 0 7 0 L 1.671875 0 L 1.671875 -11.171875 L 6.6875 -11.171875 C 7.957031 -11.171875 8.941406 -10.914062 9.640625 -10.40625 C 10.335938 -9.894531 10.6875 -9.1875 10.6875 -8.28125 C 10.6875 -7.695312 10.550781 -7.191406 10.28125 -6.765625 C 10.007812 -6.335938 9.644531 -6.015625 9.1875 -5.796875 Z M 3.265625 -9.875 L 3.265625 -6.296875 L 6.546875 -6.296875 C 7.359375 -6.296875 7.984375 -6.445312 8.421875 -6.75 C 8.867188 -7.050781 9.09375 -7.5 9.09375 -8.09375 C 9.09375 -8.675781 8.867188 -9.117188 8.421875 -9.421875 C 7.984375 -9.722656 7.359375 -9.875 6.546875 -9.875 Z M 6.9375 -1.296875 C 7.84375 -1.296875 8.523438 -1.441406 8.984375 -1.734375 C 9.441406 -2.035156 9.671875 -2.503906 9.671875 -3.140625 C 9.671875 -4.390625 8.757812 -5.015625 6.9375 -5.015625 L 3.265625 -5.015625 L 3.265625 -1.296875 Z M 6.9375 -1.296875 "/></g></g></g></g></g></svg>