<svg xmlns="http://www.w3.org/2000/svg" xmlns:xlink="http://www.w3.org/1999/xlink" width="500" zoomAndPan="magnify" viewBox="0 0 375 374.999991" height="500" preserveAspectRatio="xMidYMid meet" version="1.0"><defs><g/><clipPath id="3284d67652"><rect x="0" width="191" y="0" height="45"/></clipPath><clipPath id="2a6caedee0"><rect x="0" width="189" y="0" height="18"/></clipPath><clipPath id="e36cb805c0"><path d="M 0.8125 0.480469 L 53.855469 0.480469 L 53.855469 46.730469 L 0.8125 46.730469 Z M 0.8125 0.480469 " clip-rule="nonzero"/></clipPath><clipPath id="9f1c893dc0"><path d="M 0.679688 10 L 37 10 L 37 51.480469 L 0.679688 51.480469 Z M 0.679688 10 " clip-rule="nonzero"/></clipPath><clipPath id="5dd6fe8714"><path d="M 6 39 L 16 39 L 16 50 L 6 50 Z M 6 39 " clip-rule="nonzero"/></clipPath><clipPath id="21fec43d10"><path d="M 9.90625 51.265625 L 3.855469 46.9375 L 9.5 39.046875 L 15.550781 43.375 Z M 9.90625 51.265625 " clip-rule="nonzero"/></clipPath><clipPath id="7a52139a81"><path d="M 9.90625 51.265625 L 3.855469 46.9375 L 9.5 39.046875 L 15.550781 43.375 Z M 9.90625 51.265625 " clip-rule="nonzero"/></clipPath><clipPath id="f45624d60d"><rect x="0" width="54" y="0" height="52"/></clipPath></defs><rect x="-37.5" width="450" fill="#ffffff" y="-37.499999" height="449.999989" fill-opacity="1"/><rect x="-37.5" width="450" fill="#000000" y="-37.499999" height="449.999989" fill-opacity="1"/><g transform="matrix(1, 0, 0, 1, 121, 157)"><g clip-path="url(#3284d67652)"><g fill="#f13223" fill-opacity="1"><g transform="translate(2.725757, 35.330559)"><g><path d="M 27.15625 -25.140625 L 16.265625 0 L 10.53125 0 L -0.328125 -25.140625 L 5.96875 -25.140625 L 13.609375 -7.1875 L 21.375 -25.140625 Z M 27.15625 -25.140625 "/></g></g></g><g fill="#f13223" fill-opacity="1"><g transform="translate(36.633582, 35.330559)"><g><path d="M 2.984375 -25.140625 L 8.796875 -25.140625 L 8.796875 0 L 2.984375 0 Z M 2.984375 -25.140625 "/></g></g></g><g fill="#f13223" fill-opacity="1"><g transform="translate(55.52868, 35.330559)"><g><path d="M 19.546875 -5.390625 L 7.859375 -5.390625 L 5.640625 0 L -0.328125 0 L 10.890625 -25.140625 L 16.625 -25.140625 L 27.875 0 L 21.765625 0 Z M 17.703125 -9.8125 L 13.71875 -19.4375 L 9.734375 -9.8125 Z M 17.703125 -9.8125 "/></g></g></g><g fill="#ffffff" fill-opacity="1"><g transform="translate(90.161108, 35.330559)"><g><path d="M 8.1875 -20.40625 L 0.140625 -20.40625 L 0.140625 -25.140625 L 22.0625 -25.140625 L 22.0625 -20.40625 L 14.015625 -20.40625 L 14.015625 0 L 8.1875 0 Z M 8.1875 -20.40625 "/></g></g></g><g fill="#ffffff" fill-opacity="1"><g transform="translate(119.471734, 35.330559)"><g><path d="M 15.15625 0.4375 C 12.550781 0.4375 10.195312 -0.125 8.09375 -1.25 C 6 -2.382812 4.359375 -3.9375 3.171875 -5.90625 C 1.992188 -7.882812 1.40625 -10.109375 1.40625 -12.578125 C 1.40625 -15.035156 1.992188 -17.253906 3.171875 -19.234375 C 4.359375 -21.210938 6 -22.765625 8.09375 -23.890625 C 10.195312 -25.015625 12.550781 -25.578125 15.15625 -25.578125 C 17.769531 -25.578125 20.117188 -25.015625 22.203125 -23.890625 C 24.285156 -22.765625 25.925781 -21.210938 27.125 -19.234375 C 28.320312 -17.253906 28.921875 -15.035156 28.921875 -12.578125 C 28.921875 -10.109375 28.320312 -7.882812 27.125 -5.90625 C 25.925781 -3.9375 24.285156 -2.382812 22.203125 -1.25 C 20.117188 -0.125 17.769531 0.4375 15.15625 0.4375 Z M 15.15625 -4.53125 C 16.644531 -4.53125 17.988281 -4.867188 19.1875 -5.546875 C 20.382812 -6.234375 21.320312 -7.1875 22 -8.40625 C 22.6875 -9.625 23.03125 -11.015625 23.03125 -12.578125 C 23.03125 -14.128906 22.6875 -15.515625 22 -16.734375 C 21.320312 -17.960938 20.382812 -18.914062 19.1875 -19.59375 C 17.988281 -20.28125 16.644531 -20.625 15.15625 -20.625 C 13.675781 -20.625 12.335938 -20.28125 11.140625 -19.59375 C 9.941406 -18.914062 9 -17.960938 8.3125 -16.734375 C 7.632812 -15.515625 7.296875 -14.128906 7.296875 -12.578125 C 7.296875 -11.015625 7.632812 -9.625 8.3125 -8.40625 C 9 -7.1875 9.941406 -6.234375 11.140625 -5.546875 C 12.335938 -4.867188 13.675781 -4.53125 15.15625 -4.53125 Z M 15.15625 -4.53125 "/></g></g></g><g fill="#ffffff" fill-opacity="1"><g transform="translate(156.899288, 35.330559)"><g><path d="M 19 0 L 14.15625 -7 L 8.796875 -7 L 8.796875 0 L 2.984375 0 L 2.984375 -25.140625 L 13.859375 -25.140625 C 16.085938 -25.140625 18.019531 -24.769531 19.65625 -24.03125 C 21.300781 -23.289062 22.566406 -22.238281 23.453125 -20.875 C 24.335938 -19.507812 24.78125 -17.890625 24.78125 -16.015625 C 24.78125 -14.148438 24.332031 -12.539062 23.4375 -11.1875 C 22.539062 -9.832031 21.265625 -8.796875 19.609375 -8.078125 L 25.25 0 Z M 18.890625 -16.015625 C 18.890625 -17.429688 18.4375 -18.515625 17.53125 -19.265625 C 16.625 -20.023438 15.296875 -20.40625 13.546875 -20.40625 L 8.796875 -20.40625 L 8.796875 -11.640625 L 13.546875 -11.640625 C 15.296875 -11.640625 16.625 -12.019531 17.53125 -12.78125 C 18.4375 -13.550781 18.890625 -14.628906 18.890625 -16.015625 Z M 18.890625 -16.015625 "/></g></g></g></g></g><g transform="matrix(1, 0, 0, 1, 122, 199)"><g clip-path="url(#2a6caedee0)"><g fill="#ffffff" fill-opacity="1"><g transform="translate(1.081207, 13.25488)"><g><path d="M 5.046875 -9.34375 C 6.253906 -9.34375 7.207031 -9.050781 7.90625 -8.46875 C 8.601562 -7.894531 8.953125 -7.101562 8.953125 -6.09375 C 8.953125 -5.070312 8.601562 -4.269531 7.90625 -3.6875 C 7.207031 -3.113281 6.253906 -2.828125 5.046875 -2.828125 L 2.734375 -2.828125 L 2.734375 0 L 1.40625 0 L 1.40625 -9.34375 Z M 5.015625 -4 C 5.859375 -4 6.5 -4.175781 6.9375 -4.53125 C 7.382812 -4.894531 7.609375 -5.414062 7.609375 -6.09375 C 7.609375 -6.769531 7.382812 -7.285156 6.9375 -7.640625 C 6.5 -8.003906 5.859375 -8.1875 5.015625 -8.1875 L 2.734375 -8.1875 L 2.734375 -4 Z M 5.015625 -4 "/></g></g></g><g fill="#ffffff" fill-opacity="1"><g transform="translate(16.599651, 13.25488)"><g><path d="M 7.65625 0 L 5.640625 -2.875 C 5.390625 -2.851562 5.191406 -2.84375 5.046875 -2.84375 L 2.734375 -2.84375 L 2.734375 0 L 1.40625 0 L 1.40625 -9.34375 L 5.046875 -9.34375 C 6.253906 -9.34375 7.207031 -9.050781 7.90625 -8.46875 C 8.601562 -7.894531 8.953125 -7.101562 8.953125 -6.09375 C 8.953125 -5.375 8.769531 -4.757812 8.40625 -4.25 C 8.050781 -3.738281 7.546875 -3.367188 6.890625 -3.140625 L 9.109375 0 Z M 5.015625 -3.984375 C 5.859375 -3.984375 6.5 -4.164062 6.9375 -4.53125 C 7.382812 -4.894531 7.609375 -5.414062 7.609375 -6.09375 C 7.609375 -6.769531 7.382812 -7.285156 6.9375 -7.640625 C 6.5 -8.003906 5.859375 -8.1875 5.015625 -8.1875 L 2.734375 -8.1875 L 2.734375 -3.984375 Z M 5.015625 -3.984375 "/></g></g></g><g fill="#ffffff" fill-opacity="1"><g transform="translate(32.184833, 13.25488)"><g><path d="M 8.390625 -1.15625 L 8.390625 0 L 0.578125 0 L 0.578125 -0.90625 L 6.453125 -8.1875 L 0.671875 -8.1875 L 0.671875 -9.34375 L 8.21875 -9.34375 L 8.21875 -8.4375 L 2.359375 -1.15625 Z M 8.390625 -1.15625 "/></g></g></g><g fill="#ffffff" fill-opacity="1"><g transform="translate(46.835721, 13.25488)"><g><path d="M 8.1875 -1.15625 L 8.1875 0 L 1.40625 0 L 1.40625 -9.34375 L 8 -9.34375 L 8 -8.1875 L 2.734375 -8.1875 L 2.734375 -5.3125 L 7.421875 -5.3125 L 7.421875 -4.1875 L 2.734375 -4.1875 L 2.734375 -1.15625 Z M 8.1875 -1.15625 "/></g></g></g><g fill="#ffffff" fill-opacity="1"><g transform="translate(61.66012, 13.25488)"><g><path d="M 14.609375 -9.34375 L 11.484375 0 L 10.09375 0 L 7.53125 -7.46875 L 4.984375 0 L 3.546875 0 L 0.421875 -9.34375 L 1.796875 -9.34375 L 4.328125 -1.75 L 6.953125 -9.34375 L 8.1875 -9.34375 L 10.765625 -1.703125 L 13.34375 -9.34375 Z M 14.609375 -9.34375 "/></g></g></g><g fill="#ffffff" fill-opacity="1"><g transform="translate(82.57077, 13.25488)"><g><path d="M 5.625 0.109375 C 4.675781 0.109375 3.820312 -0.0976562 3.0625 -0.515625 C 2.3125 -0.929688 1.71875 -1.503906 1.28125 -2.234375 C 0.851562 -2.960938 0.640625 -3.773438 0.640625 -4.671875 C 0.640625 -5.578125 0.851562 -6.394531 1.28125 -7.125 C 1.71875 -7.851562 2.3125 -8.421875 3.0625 -8.828125 C 3.820312 -9.242188 4.675781 -9.453125 5.625 -9.453125 C 6.5625 -9.453125 7.40625 -9.242188 8.15625 -8.828125 C 8.914062 -8.421875 9.507812 -7.851562 9.9375 -7.125 C 10.363281 -6.394531 10.578125 -5.578125 10.578125 -4.671875 C 10.578125 -3.765625 10.363281 -2.945312 9.9375 -2.21875 C 9.507812 -1.5 8.914062 -0.929688 8.15625 -0.515625 C 7.40625 -0.0976562 6.5625 0.109375 5.625 0.109375 Z M 5.625 -1.078125 C 6.3125 -1.078125 6.925781 -1.234375 7.46875 -1.546875 C 8.019531 -1.859375 8.453125 -2.285156 8.765625 -2.828125 C 9.085938 -3.378906 9.25 -3.992188 9.25 -4.671875 C 9.25 -5.347656 9.085938 -5.957031 8.765625 -6.5 C 8.453125 -7.050781 8.019531 -7.484375 7.46875 -7.796875 C 6.925781 -8.109375 6.3125 -8.265625 5.625 -8.265625 C 4.9375 -8.265625 4.3125 -8.109375 3.75 -7.796875 C 3.195312 -7.484375 2.765625 -7.050781 2.453125 -6.5 C 2.140625 -5.957031 1.984375 -5.347656 1.984375 -4.671875 C 1.984375 -3.992188 2.140625 -3.378906 2.453125 -2.828125 C 2.765625 -2.285156 3.195312 -1.859375 3.75 -1.546875 C 4.3125 -1.234375 4.9375 -1.078125 5.625 -1.078125 Z M 6.4375 -11.84375 L 8.0625 -11.84375 L 5.8125 -10.109375 L 4.609375 -10.109375 Z M 6.4375 -11.84375 "/></g></g></g><g fill="#ffffff" fill-opacity="1"><g transform="translate(99.664158, 13.25488)"><g><path d="M 8.390625 -1.15625 L 8.390625 0 L 0.578125 0 L 0.578125 -0.90625 L 6.453125 -8.1875 L 0.671875 -8.1875 L 0.671875 -9.34375 L 8.21875 -9.34375 L 8.21875 -8.4375 L 2.359375 -1.15625 Z M 8.390625 -1.15625 "/></g></g></g><g fill="#ffffff" fill-opacity="1"><g transform="translate(114.315046, 13.25488)"><g/></g></g><g fill="#ffffff" fill-opacity="1"><g transform="translate(123.787271, 13.25488)"><g><path d="M 5.625 0.109375 C 4.675781 0.109375 3.820312 -0.0976562 3.0625 -0.515625 C 2.3125 -0.929688 1.71875 -1.503906 1.28125 -2.234375 C 0.851562 -2.960938 0.640625 -3.773438 0.640625 -4.671875 C 0.640625 -5.578125 0.851562 -6.394531 1.28125 -7.125 C 1.71875 -7.851562 2.3125 -8.421875 3.0625 -8.828125 C 3.820312 -9.242188 4.675781 -9.453125 5.625 -9.453125 C 6.5625 -9.453125 7.40625 -9.242188 8.15625 -8.828125 C 8.914062 -8.421875 9.507812 -7.851562 9.9375 -7.125 C 10.363281 -6.394531 10.578125 -5.578125 10.578125 -4.671875 C 10.578125 -3.765625 10.363281 -2.945312 9.9375 -2.21875 C 9.507812 -1.5 8.914062 -0.929688 8.15625 -0.515625 C 7.40625 -0.0976562 6.5625 0.109375 5.625 0.109375 Z M 5.625 -1.078125 C 6.3125 -1.078125 6.925781 -1.234375 7.46875 -1.546875 C 8.019531 -1.859375 8.453125 -2.285156 8.765625 -2.828125 C 9.085938 -3.378906 9.25 -3.992188 9.25 -4.671875 C 9.25 -5.347656 9.085938 -5.957031 8.765625 -6.5 C 8.453125 -7.050781 8.019531 -7.484375 7.46875 -7.796875 C 6.925781 -8.109375 6.3125 -8.265625 5.625 -8.265625 C 4.9375 -8.265625 4.3125 -8.109375 3.75 -7.796875 C 3.195312 -7.484375 2.765625 -7.050781 2.453125 -6.5 C 2.140625 -5.957031 1.984375 -5.347656 1.984375 -4.671875 C 1.984375 -3.992188 2.140625 -3.378906 2.453125 -2.828125 C 2.765625 -2.285156 3.195312 -1.859375 3.75 -1.546875 C 4.3125 -1.234375 4.9375 -1.078125 5.625 -1.078125 Z M 5.625 -1.078125 "/></g></g></g><g fill="#ffffff" fill-opacity="1"><g transform="translate(140.88066, 13.25488)"><g><path d="M 4.125 0.109375 C 3.425781 0.109375 2.75 0 2.09375 -0.21875 C 1.4375 -0.4375 0.921875 -0.71875 0.546875 -1.0625 L 1.046875 -2.109375 C 1.398438 -1.785156 1.851562 -1.523438 2.40625 -1.328125 C 2.96875 -1.128906 3.539062 -1.03125 4.125 -1.03125 C 4.90625 -1.03125 5.484375 -1.160156 5.859375 -1.421875 C 6.242188 -1.679688 6.4375 -2.03125 6.4375 -2.46875 C 6.4375 -2.789062 6.332031 -3.050781 6.125 -3.25 C 5.914062 -3.445312 5.65625 -3.597656 5.34375 -3.703125 C 5.039062 -3.816406 4.609375 -3.941406 4.046875 -4.078125 C 3.347656 -4.242188 2.78125 -4.410156 2.34375 -4.578125 C 1.914062 -4.753906 1.546875 -5.015625 1.234375 -5.359375 C 0.929688 -5.710938 0.78125 -6.1875 0.78125 -6.78125 C 0.78125 -7.28125 0.910156 -7.726562 1.171875 -8.125 C 1.429688 -8.53125 1.828125 -8.851562 2.359375 -9.09375 C 2.898438 -9.332031 3.566406 -9.453125 4.359375 -9.453125 C 4.910156 -9.453125 5.453125 -9.378906 5.984375 -9.234375 C 6.515625 -9.097656 6.972656 -8.894531 7.359375 -8.625 L 6.921875 -7.5625 C 6.523438 -7.8125 6.101562 -8 5.65625 -8.125 C 5.21875 -8.257812 4.785156 -8.328125 4.359375 -8.328125 C 3.597656 -8.328125 3.023438 -8.1875 2.640625 -7.90625 C 2.265625 -7.632812 2.078125 -7.28125 2.078125 -6.84375 C 2.078125 -6.519531 2.179688 -6.257812 2.390625 -6.0625 C 2.609375 -5.863281 2.875 -5.707031 3.1875 -5.59375 C 3.507812 -5.476562 3.941406 -5.359375 4.484375 -5.234375 C 5.191406 -5.066406 5.757812 -4.894531 6.1875 -4.71875 C 6.613281 -4.550781 6.976562 -4.296875 7.28125 -3.953125 C 7.59375 -3.609375 7.75 -3.140625 7.75 -2.546875 C 7.75 -2.054688 7.613281 -1.609375 7.34375 -1.203125 C 7.082031 -0.796875 6.675781 -0.472656 6.125 -0.234375 C 5.582031 -0.00390625 4.914062 0.109375 4.125 0.109375 Z M 4.125 0.109375 "/></g></g></g><g fill="#ffffff" fill-opacity="1"><g transform="translate(155.051048, 13.25488)"><g><path d="M 5.625 0.109375 C 4.675781 0.109375 3.820312 -0.0976562 3.0625 -0.515625 C 2.3125 -0.929688 1.71875 -1.503906 1.28125 -2.234375 C 0.851562 -2.960938 0.640625 -3.773438 0.640625 -4.671875 C 0.640625 -5.578125 0.851562 -6.394531 1.28125 -7.125 C 1.71875 -7.851562 2.3125 -8.421875 3.0625 -8.828125 C 3.820312 -9.242188 4.675781 -9.453125 5.625 -9.453125 C 6.5625 -9.453125 7.40625 -9.242188 8.15625 -8.828125 C 8.914062 -8.421875 9.507812 -7.851562 9.9375 -7.125 C 10.363281 -6.394531 10.578125 -5.578125 10.578125 -4.671875 C 10.578125 -3.765625 10.363281 -2.945312 9.9375 -2.21875 C 9.507812 -1.5 8.914062 -0.929688 8.15625 -0.515625 C 7.40625 -0.0976562 6.5625 0.109375 5.625 0.109375 Z M 5.625 -1.078125 C 6.3125 -1.078125 6.925781 -1.234375 7.46875 -1.546875 C 8.019531 -1.859375 8.453125 -2.285156 8.765625 -2.828125 C 9.085938 -3.378906 9.25 -3.992188 9.25 -4.671875 C 9.25 -5.347656 9.085938 -5.957031 8.765625 -6.5 C 8.453125 -7.050781 8.019531 -7.484375 7.46875 -7.796875 C 6.925781 -8.109375 6.3125 -8.265625 5.625 -8.265625 C 4.9375 -8.265625 4.3125 -8.109375 3.75 -7.796875 C 3.195312 -7.484375 2.765625 -7.050781 2.453125 -6.5 C 2.140625 -5.957031 1.984375 -5.347656 1.984375 -4.671875 C 1.984375 -3.992188 2.140625 -3.378906 2.453125 -2.828125 C 2.765625 -2.285156 3.195312 -1.859375 3.75 -1.546875 C 4.3125 -1.234375 4.9375 -1.078125 5.625 -1.078125 Z M 6.4375 -11.84375 L 8.0625 -11.84375 L 5.8125 -10.109375 L 4.609375 -10.109375 Z M 6.4375 -11.84375 "/></g></g></g><g fill="#ffffff" fill-opacity="1"><g transform="translate(172.144436, 13.25488)"><g><path d="M 7.6875 -4.84375 C 8.238281 -4.695312 8.664062 -4.425781 8.96875 -4.03125 C 9.28125 -3.632812 9.4375 -3.132812 9.4375 -2.53125 C 9.4375 -1.71875 9.128906 -1.09375 8.515625 -0.65625 C 7.910156 -0.21875 7.023438 0 5.859375 0 L 1.40625 0 L 1.40625 -9.34375 L 5.59375 -9.34375 C 6.664062 -9.34375 7.492188 -9.128906 8.078125 -8.703125 C 8.660156 -8.273438 8.953125 -7.6875 8.953125 -6.9375 C 8.953125 -6.445312 8.835938 -6.019531 8.609375 -5.65625 C 8.378906 -5.300781 8.070312 -5.03125 7.6875 -4.84375 Z M 2.734375 -8.265625 L 2.734375 -5.28125 L 5.484375 -5.28125 C 6.160156 -5.28125 6.679688 -5.40625 7.046875 -5.65625 C 7.421875 -5.90625 7.609375 -6.273438 7.609375 -6.765625 C 7.609375 -7.265625 7.421875 -7.640625 7.046875 -7.890625 C 6.679688 -8.140625 6.160156 -8.265625 5.484375 -8.265625 Z M 5.8125 -1.078125 C 6.570312 -1.078125 7.140625 -1.203125 7.515625 -1.453125 C 7.898438 -1.703125 8.09375 -2.09375 8.09375 -2.625 C 8.09375 -3.664062 7.332031 -4.1875 5.8125 -4.1875 L 2.734375 -4.1875 L 2.734375 -1.078125 Z M 5.8125 -1.078125 "/></g></g></g></g></g><g transform="matrix(1, 0, 0, 1, 61, 165)"><g clip-path="url(#f45624d60d)"><g clip-path="url(#e36cb805c0)"><path fill="#f13223" d="M 53.863281 0.480469 L 27.265625 46.628906 L 23.117188 39.757812 L 24.25 37.945312 L 27.234375 42.898438 L 50.566406 2.398438 L 25.441406 2.398438 L 29.9375 10.101562 L 38.191406 10.101562 L 21.730469 37.21875 L 0.8125 0.480469 L 13.519531 0.480469 L 26.257812 21.773438 L 25.148438 23.554688 L 12.441406 2.398438 L 4.085938 2.398438 L 21.78125 33.488281 L 34.8125 12.027344 L 28.851562 12.027344 L 22.113281 0.480469 Z M 53.863281 0.480469 " fill-opacity="1" fill-rule="nonzero"/></g><g clip-path="url(#9f1c893dc0)"><path stroke-linecap="butt" transform="matrix(0.175654, -0.271578, 0.271578, 0.175654, 9.971863, 43.639601)" fill="none" stroke-linejoin="miter" d="M -0.00606502 2.998621 L 84.018939 2.993007 " stroke="#f13223" stroke-width="6" stroke-opacity="1" stroke-miterlimit="4"/></g><g clip-path="url(#5dd6fe8714)"><g clip-path="url(#21fec43d10)"><g clip-path="url(#7a52139a81)"><path fill="#f13223" d="M 6.945312 49.148438 L 9.632812 39.132812 L 11.183594 43.222656 L 15.554688 43.367188 Z M 6.945312 49.148438 " fill-opacity="1" fill-rule="evenodd"/></g></g></g></g></g></svg>