<svg xmlns="http://www.w3.org/2000/svg" xmlns:xlink="http://www.w3.org/1999/xlink" width="500" zoomAndPan="magnify" viewBox="0 0 375 374.999991" height="500" preserveAspectRatio="xMidYMid meet" version="1.0"><defs><clipPath id="9e0907ef86"><path d="M 0.484375 0.195312 L 174.480469 0.195312 L 174.480469 151.910156 L 0.484375 151.910156 Z M 0.484375 0.195312 " clip-rule="nonzero"/></clipPath><clipPath id="35ba4e8f82"><path d="M 0.320312 32 L 118 32 L 118 166.960938 L 0.320312 166.960938 Z M 0.320312 32 " clip-rule="nonzero"/></clipPath><clipPath id="eee608a8ce"><path d="M 20 126 L 49 126 L 49 160 L 20 160 Z M 20 126 " clip-rule="nonzero"/></clipPath><clipPath id="0c4758b5d7"><path d="M 30.316406 166.792969 L 10.46875 152.597656 L 28.988281 126.710938 L 48.835938 140.90625 Z M 30.316406 166.792969 " clip-rule="nonzero"/></clipPath><clipPath id="65a96489a3"><path d="M 30.316406 166.792969 L 10.46875 152.597656 L 28.988281 126.710938 L 48.835938 140.90625 Z M 30.316406 166.792969 " clip-rule="nonzero"/></clipPath><clipPath id="073856a46c"><rect x="0" width="175" y="0" height="167"/></clipPath></defs><g transform="matrix(1, 0, 0, 1, 100, 104)"><g clip-path="url(#073856a46c)"><g clip-path="url(#9e0907ef86)"><path fill="#f13223" d="M 174.511719 0.203125 L 87.261719 151.585938 L 73.660156 129.042969 L 77.363281 123.089844 L 87.15625 139.34375 L 163.699219 6.496094 L 81.277344 6.496094 L 96.03125 31.757812 L 123.097656 31.757812 L 69.101562 120.710938 L 0.484375 0.203125 L 42.171875 0.203125 L 83.960938 70.046875 L 80.324219 75.894531 L 38.636719 6.496094 L 11.230469 6.496094 L 69.273438 108.46875 L 112.015625 38.082031 L 92.460938 38.082031 L 70.359375 0.203125 Z M 174.511719 0.203125 " fill-opacity="1" fill-rule="nonzero"/></g><g clip-path="url(#35ba4e8f82)"><path stroke-linecap="butt" transform="matrix(0.576194, -0.890851, 0.890851, 0.576194, 30.533731, 141.77472)" fill="none" stroke-linejoin="miter" d="M -0.000094815 3.000901 L 84.017756 3.000394 " stroke="#f13223" stroke-width="6" stroke-opacity="1" stroke-miterlimit="4"/></g><g clip-path="url(#eee608a8ce)"><g clip-path="url(#0c4758b5d7)"><g clip-path="url(#65a96489a3)"><path fill="#f13223" d="M 20.605469 159.839844 L 29.421875 126.988281 L 34.503906 140.414062 L 48.851562 140.886719 Z M 20.605469 159.839844 " fill-opacity="1" fill-rule="evenodd"/></g></g></g></g></g></svg>