<svg xmlns="http://www.w3.org/2000/svg" xmlns:xlink="http://www.w3.org/1999/xlink" width="500" zoomAndPan="magnify" viewBox="0 0 375 374.999991" height="500" preserveAspectRatio="xMidYMid meet" version="1.0"><defs><g/><clipPath id="4cd1110f97"><path d="M 125.988281 166.484375 L 248.988281 166.484375 L 248.988281 273.734375 L 125.988281 273.734375 Z M 125.988281 166.484375 " clip-rule="nonzero"/></clipPath><clipPath id="bf1b1f139a"><path d="M 140 256 L 161 256 L 161 280 L 140 280 Z M 140 256 " clip-rule="nonzero"/></clipPath><clipPath id="72d34f9114"><path d="M 147.078125 284.257812 L 133.046875 274.222656 L 146.136719 255.921875 L 160.167969 265.957031 Z M 147.078125 284.257812 " clip-rule="nonzero"/></clipPath><clipPath id="c46d35d183"><path d="M 147.078125 284.257812 L 133.046875 274.222656 L 146.136719 255.921875 L 160.167969 265.957031 Z M 147.078125 284.257812 " clip-rule="nonzero"/></clipPath><clipPath id="0c66e832dc"><path d="M 65 0.078125 L 73 0.078125 L 73 11 L 65 11 Z M 65 0.078125 " clip-rule="nonzero"/></clipPath><clipPath id="73fe0a80f3"><path d="M 123 0.078125 L 132 0.078125 L 132 11 L 123 11 Z M 123 0.078125 " clip-rule="nonzero"/></clipPath><clipPath id="cfdb531513"><rect x="0" width="149" y="0" height="14"/></clipPath></defs><rect x="-37.5" width="450" fill="#ffffff" y="-37.499999" height="449.999989" fill-opacity="1"/><rect x="-37.5" width="450" fill="#000000" y="-37.499999" height="449.999989" fill-opacity="1"/><g clip-path="url(#4cd1110f97)"><path fill="#f13223" d="M 249.011719 166.492188 L 187.332031 273.507812 L 177.714844 257.570312 L 180.335938 253.363281 L 187.257812 264.851562 L 241.367188 170.9375 L 183.101562 170.9375 L 193.53125 188.796875 L 212.664062 188.796875 L 174.496094 251.679688 L 125.988281 166.492188 L 155.457031 166.492188 L 185 215.863281 L 182.425781 220 L 152.957031 170.9375 L 133.582031 170.9375 L 174.613281 243.027344 L 204.828125 193.269531 L 191.007812 193.269531 L 175.382812 166.492188 Z M 249.011719 166.492188 " fill-opacity="1" fill-rule="nonzero"/></g><path stroke-linecap="butt" transform="matrix(0.40732, -0.629754, 0.629754, 0.40732, 147.229771, 266.570433)" fill="none" stroke-linejoin="miter" d="M -0.00198345 2.99835 L 84.015742 2.999291 " stroke="#f13223" stroke-width="6" stroke-opacity="1" stroke-miterlimit="4"/><g clip-path="url(#bf1b1f139a)"><g clip-path="url(#72d34f9114)"><g clip-path="url(#c46d35d183)"><path fill="#f13223" d="M 140.210938 279.339844 L 146.445312 256.117188 L 150.035156 265.605469 L 160.179688 265.941406 Z M 140.210938 279.339844 " fill-opacity="1" fill-rule="evenodd"/></g></g></g><g transform="matrix(1, 0, 0, 1, 115, 142)"><g clip-path="url(#cfdb531513)"><g fill="#ffffff" fill-opacity="1"><g transform="translate(1.297884, 10.544241)"><g><path d="M 2.203125 0 L 0.703125 0 L 0.703125 -7.921875 L 4.125 -7.921875 C 4.613281 -7.921875 5.046875 -7.835938 5.421875 -7.671875 C 5.804688 -7.503906 6.101562 -7.25 6.3125 -6.90625 C 6.519531 -6.570312 6.625 -6.128906 6.625 -5.578125 C 6.625 -5.078125 6.519531 -4.644531 6.3125 -4.28125 C 6.101562 -3.914062 5.804688 -3.640625 5.421875 -3.453125 C 5.046875 -3.265625 4.613281 -3.171875 4.125 -3.171875 L 2.203125 -3.171875 Z M 2.203125 -6.578125 L 2.203125 -4.46875 L 3.90625 -4.46875 C 4.3125 -4.46875 4.617188 -4.554688 4.828125 -4.734375 C 5.035156 -4.921875 5.140625 -5.1875 5.140625 -5.53125 C 5.140625 -5.863281 5.03125 -6.117188 4.8125 -6.296875 C 4.601562 -6.484375 4.300781 -6.578125 3.90625 -6.578125 Z M 2.203125 -6.578125 "/></g></g></g><g fill="#ffffff" fill-opacity="1"><g transform="translate(13.169052, 10.544241)"><g><path d="M 5.390625 -3.4375 L 6.8125 0 L 5.21875 0 L 3.96875 -3.171875 L 2.203125 -3.171875 L 2.203125 0 L 0.703125 0 L 0.703125 -7.921875 L 4.125 -7.921875 C 4.613281 -7.921875 5.046875 -7.835938 5.421875 -7.671875 C 5.804688 -7.503906 6.101562 -7.25 6.3125 -6.90625 C 6.519531 -6.570312 6.625 -6.128906 6.625 -5.578125 C 6.625 -5.054688 6.515625 -4.613281 6.296875 -4.25 C 6.078125 -3.882812 5.773438 -3.613281 5.390625 -3.4375 Z M 3.90625 -6.578125 L 2.203125 -6.578125 L 2.203125 -4.46875 L 3.90625 -4.46875 C 4.3125 -4.46875 4.617188 -4.554688 4.828125 -4.734375 C 5.035156 -4.921875 5.140625 -5.1875 5.140625 -5.53125 C 5.140625 -5.863281 5.03125 -6.117188 4.8125 -6.296875 C 4.601562 -6.484375 4.300781 -6.578125 3.90625 -6.578125 Z M 3.90625 -6.578125 "/></g></g></g><g fill="#ffffff" fill-opacity="1"><g transform="translate(25.278567, 10.544241)"><g><path d="M 6.1875 0 L 0.28125 0 L 0.28125 -1.03125 L 4.296875 -6.578125 L 0.515625 -6.578125 L 0.515625 -7.921875 L 6.171875 -7.921875 L 6.171875 -6.84375 L 2.21875 -1.34375 L 6.1875 -1.34375 Z M 6.1875 0 "/></g></g></g><g fill="#ffffff" fill-opacity="1"><g transform="translate(36.755932, 10.544241)"><g><path d="M 5.984375 0 L 0.703125 0 L 0.703125 -7.921875 L 5.984375 -7.921875 L 5.984375 -6.578125 L 2.203125 -6.578125 L 2.203125 -4.625 L 5.59375 -4.625 L 5.59375 -3.296875 L 2.203125 -3.296875 L 2.203125 -1.34375 L 5.984375 -1.34375 Z M 5.984375 0 "/></g></g></g><g fill="#ffffff" fill-opacity="1"><g transform="translate(48.160762, 10.544241)"><g><path d="M 4.46875 0 L 2.21875 0 L 0.15625 -7.921875 L 1.71875 -7.921875 L 3.34375 -1.34375 L 4.828125 -7.921875 L 6.71875 -7.921875 L 8.203125 -1.34375 L 9.828125 -7.921875 L 11.390625 -7.921875 L 9.3125 0 L 7.09375 0 L 5.765625 -6.125 Z M 4.46875 0 "/></g></g></g><g clip-path="url(#0c66e832dc)"><g fill="#ffffff" fill-opacity="1"><g transform="translate(64.65383, 10.544241)"><g><path d="M 4.703125 -8.46875 L 3.625 -8.46875 L 4.828125 -10.015625 L 6.265625 -10.015625 Z M 4.25 0.140625 C 3.59375 0.140625 3.019531 0.03125 2.53125 -0.1875 C 2.050781 -0.40625 1.65625 -0.703125 1.34375 -1.078125 C 1.03125 -1.460938 0.796875 -1.898438 0.640625 -2.390625 C 0.484375 -2.890625 0.40625 -3.414062 0.40625 -3.96875 C 0.40625 -4.507812 0.484375 -5.023438 0.640625 -5.515625 C 0.796875 -6.015625 1.03125 -6.453125 1.34375 -6.828125 C 1.65625 -7.210938 2.050781 -7.515625 2.53125 -7.734375 C 3.019531 -7.953125 3.59375 -8.0625 4.25 -8.0625 C 4.90625 -8.0625 5.472656 -7.953125 5.953125 -7.734375 C 6.441406 -7.515625 6.84375 -7.210938 7.15625 -6.828125 C 7.46875 -6.453125 7.703125 -6.015625 7.859375 -5.515625 C 8.015625 -5.023438 8.09375 -4.507812 8.09375 -3.96875 C 8.09375 -3.414062 8.015625 -2.890625 7.859375 -2.390625 C 7.703125 -1.898438 7.46875 -1.460938 7.15625 -1.078125 C 6.84375 -0.703125 6.441406 -0.40625 5.953125 -0.1875 C 5.472656 0.03125 4.90625 0.140625 4.25 0.140625 Z M 4.25 -1.1875 C 4.738281 -1.1875 5.148438 -1.300781 5.484375 -1.53125 C 5.828125 -1.769531 6.085938 -2.097656 6.265625 -2.515625 C 6.441406 -2.929688 6.53125 -3.414062 6.53125 -3.96875 C 6.53125 -4.507812 6.441406 -4.984375 6.265625 -5.390625 C 6.085938 -5.804688 5.828125 -6.128906 5.484375 -6.359375 C 5.148438 -6.597656 4.738281 -6.71875 4.25 -6.71875 C 3.769531 -6.71875 3.359375 -6.597656 3.015625 -6.359375 C 2.671875 -6.128906 2.40625 -5.804688 2.21875 -5.390625 C 2.039062 -4.984375 1.953125 -4.507812 1.953125 -3.96875 C 1.953125 -3.414062 2.039062 -2.929688 2.21875 -2.515625 C 2.40625 -2.097656 2.671875 -1.769531 3.015625 -1.53125 C 3.359375 -1.300781 3.769531 -1.1875 4.25 -1.1875 Z M 4.25 -1.1875 "/></g></g></g></g><g fill="#ffffff" fill-opacity="1"><g transform="translate(78.120892, 10.544241)"><g><path d="M 6.1875 0 L 0.28125 0 L 0.28125 -1.03125 L 4.296875 -6.578125 L 0.515625 -6.578125 L 0.515625 -7.921875 L 6.171875 -7.921875 L 6.171875 -6.84375 L 2.21875 -1.34375 L 6.1875 -1.34375 Z M 6.1875 0 "/></g></g></g><g fill="#ffffff" fill-opacity="1"><g transform="translate(89.598258, 10.544241)"><g/></g></g><g fill="#ffffff" fill-opacity="1"><g transform="translate(97.344946, 10.544241)"><g><path d="M 4.25 0.140625 C 3.59375 0.140625 3.019531 0.03125 2.53125 -0.1875 C 2.050781 -0.40625 1.65625 -0.703125 1.34375 -1.078125 C 1.03125 -1.460938 0.796875 -1.898438 0.640625 -2.390625 C 0.484375 -2.890625 0.40625 -3.414062 0.40625 -3.96875 C 0.40625 -4.507812 0.484375 -5.023438 0.640625 -5.515625 C 0.796875 -6.015625 1.03125 -6.453125 1.34375 -6.828125 C 1.65625 -7.210938 2.050781 -7.515625 2.53125 -7.734375 C 3.019531 -7.953125 3.59375 -8.0625 4.25 -8.0625 C 4.90625 -8.0625 5.472656 -7.953125 5.953125 -7.734375 C 6.441406 -7.515625 6.84375 -7.210938 7.15625 -6.828125 C 7.46875 -6.453125 7.703125 -6.015625 7.859375 -5.515625 C 8.015625 -5.023438 8.09375 -4.507812 8.09375 -3.96875 C 8.09375 -3.414062 8.015625 -2.890625 7.859375 -2.390625 C 7.703125 -1.898438 7.46875 -1.460938 7.15625 -1.078125 C 6.84375 -0.703125 6.441406 -0.40625 5.953125 -0.1875 C 5.472656 0.03125 4.90625 0.140625 4.25 0.140625 Z M 4.25 -1.1875 C 4.738281 -1.1875 5.148438 -1.300781 5.484375 -1.53125 C 5.828125 -1.769531 6.085938 -2.097656 6.265625 -2.515625 C 6.441406 -2.929688 6.53125 -3.414062 6.53125 -3.96875 C 6.53125 -4.507812 6.441406 -4.984375 6.265625 -5.390625 C 6.085938 -5.804688 5.828125 -6.128906 5.484375 -6.359375 C 5.148438 -6.597656 4.738281 -6.71875 4.25 -6.71875 C 3.769531 -6.71875 3.359375 -6.597656 3.015625 -6.359375 C 2.671875 -6.128906 2.40625 -5.804688 2.21875 -5.390625 C 2.039062 -4.984375 1.953125 -4.507812 1.953125 -3.96875 C 1.953125 -3.414062 2.039062 -2.929688 2.21875 -2.515625 C 2.40625 -2.097656 2.671875 -1.769531 3.015625 -1.53125 C 3.359375 -1.300781 3.769531 -1.1875 4.25 -1.1875 Z M 4.25 -1.1875 "/></g></g></g><g fill="#ffffff" fill-opacity="1"><g transform="translate(110.812009, 10.544241)"><g><path d="M 3.84375 0.140625 C 3.46875 0.140625 3.082031 0.09375 2.6875 0 C 2.300781 -0.09375 1.941406 -0.238281 1.609375 -0.4375 C 1.273438 -0.644531 0.992188 -0.925781 0.765625 -1.28125 C 0.546875 -1.632812 0.410156 -2.066406 0.359375 -2.578125 L 1.90625 -2.578125 C 2 -2.203125 2.144531 -1.90625 2.34375 -1.6875 C 2.539062 -1.476562 2.769531 -1.332031 3.03125 -1.25 C 3.300781 -1.164062 3.578125 -1.125 3.859375 -1.125 C 4.265625 -1.125 4.601562 -1.210938 4.875 -1.390625 C 5.15625 -1.566406 5.296875 -1.84375 5.296875 -2.21875 C 5.296875 -2.5 5.207031 -2.710938 5.03125 -2.859375 C 4.851562 -3.015625 4.617188 -3.132812 4.328125 -3.21875 C 4.046875 -3.300781 3.734375 -3.378906 3.390625 -3.453125 C 3.066406 -3.523438 2.742188 -3.609375 2.421875 -3.703125 C 2.097656 -3.796875 1.796875 -3.921875 1.515625 -4.078125 C 1.242188 -4.234375 1.023438 -4.441406 0.859375 -4.703125 C 0.703125 -4.972656 0.625 -5.316406 0.625 -5.734375 C 0.625 -6.242188 0.742188 -6.671875 0.984375 -7.015625 C 1.234375 -7.359375 1.566406 -7.617188 1.984375 -7.796875 C 2.410156 -7.972656 2.890625 -8.0625 3.421875 -8.0625 C 3.929688 -8.0625 4.410156 -7.96875 4.859375 -7.78125 C 5.316406 -7.601562 5.695312 -7.332031 6 -6.96875 C 6.3125 -6.601562 6.507812 -6.132812 6.59375 -5.5625 L 5.078125 -5.5625 C 4.972656 -5.976562 4.765625 -6.285156 4.453125 -6.484375 C 4.148438 -6.679688 3.796875 -6.78125 3.390625 -6.78125 C 3.015625 -6.78125 2.707031 -6.703125 2.46875 -6.546875 C 2.226562 -6.390625 2.109375 -6.160156 2.109375 -5.859375 C 2.109375 -5.617188 2.191406 -5.425781 2.359375 -5.28125 C 2.523438 -5.144531 2.742188 -5.035156 3.015625 -4.953125 C 3.296875 -4.878906 3.597656 -4.804688 3.921875 -4.734375 C 4.253906 -4.660156 4.585938 -4.570312 4.921875 -4.46875 C 5.253906 -4.375 5.5625 -4.238281 5.84375 -4.0625 C 6.132812 -3.894531 6.367188 -3.671875 6.546875 -3.390625 C 6.722656 -3.109375 6.8125 -2.742188 6.8125 -2.296875 C 6.8125 -1.546875 6.550781 -0.953125 6.03125 -0.515625 C 5.507812 -0.078125 4.78125 0.140625 3.84375 0.140625 Z M 3.84375 0.140625 "/></g></g></g><g clip-path="url(#73fe0a80f3)"><g fill="#ffffff" fill-opacity="1"><g transform="translate(122.994059, 10.544241)"><g><path d="M 4.703125 -8.46875 L 3.625 -8.46875 L 4.828125 -10.015625 L 6.265625 -10.015625 Z M 4.25 0.140625 C 3.59375 0.140625 3.019531 0.03125 2.53125 -0.1875 C 2.050781 -0.40625 1.65625 -0.703125 1.34375 -1.078125 C 1.03125 -1.460938 0.796875 -1.898438 0.640625 -2.390625 C 0.484375 -2.890625 0.40625 -3.414062 0.40625 -3.96875 C 0.40625 -4.507812 0.484375 -5.023438 0.640625 -5.515625 C 0.796875 -6.015625 1.03125 -6.453125 1.34375 -6.828125 C 1.65625 -7.210938 2.050781 -7.515625 2.53125 -7.734375 C 3.019531 -7.953125 3.59375 -8.0625 4.25 -8.0625 C 4.90625 -8.0625 5.472656 -7.953125 5.953125 -7.734375 C 6.441406 -7.515625 6.84375 -7.210938 7.15625 -6.828125 C 7.46875 -6.453125 7.703125 -6.015625 7.859375 -5.515625 C 8.015625 -5.023438 8.09375 -4.507812 8.09375 -3.96875 C 8.09375 -3.414062 8.015625 -2.890625 7.859375 -2.390625 C 7.703125 -1.898438 7.46875 -1.460938 7.15625 -1.078125 C 6.84375 -0.703125 6.441406 -0.40625 5.953125 -0.1875 C 5.472656 0.03125 4.90625 0.140625 4.25 0.140625 Z M 4.25 -1.1875 C 4.738281 -1.1875 5.148438 -1.300781 5.484375 -1.53125 C 5.828125 -1.769531 6.085938 -2.097656 6.265625 -2.515625 C 6.441406 -2.929688 6.53125 -3.414062 6.53125 -3.96875 C 6.53125 -4.507812 6.441406 -4.984375 6.265625 -5.390625 C 6.085938 -5.804688 5.828125 -6.128906 5.484375 -6.359375 C 5.148438 -6.597656 4.738281 -6.71875 4.25 -6.71875 C 3.769531 -6.71875 3.359375 -6.597656 3.015625 -6.359375 C 2.671875 -6.128906 2.40625 -5.804688 2.21875 -5.390625 C 2.039062 -4.984375 1.953125 -4.507812 1.953125 -3.96875 C 1.953125 -3.414062 2.039062 -2.929688 2.21875 -2.515625 C 2.40625 -2.097656 2.671875 -1.769531 3.015625 -1.53125 C 3.359375 -1.300781 3.769531 -1.1875 4.25 -1.1875 Z M 4.25 -1.1875 "/></g></g></g></g><g fill="#ffffff" fill-opacity="1"><g transform="translate(136.461122, 10.544241)"><g><path d="M 3.96875 0 L 0.703125 0 L 0.703125 -7.921875 L 3.84375 -7.921875 C 4.8125 -7.921875 5.507812 -7.703125 5.9375 -7.265625 C 6.257812 -6.941406 6.421875 -6.5 6.421875 -5.9375 C 6.421875 -5.488281 6.316406 -5.101562 6.109375 -4.78125 C 5.910156 -4.46875 5.625 -4.257812 5.25 -4.15625 C 5.757812 -4.070312 6.148438 -3.867188 6.421875 -3.546875 C 6.691406 -3.234375 6.828125 -2.816406 6.828125 -2.296875 C 6.828125 -1.921875 6.757812 -1.585938 6.625 -1.296875 C 6.488281 -1.015625 6.320312 -0.789062 6.125 -0.625 C 5.894531 -0.4375 5.640625 -0.296875 5.359375 -0.203125 C 5.078125 -0.117188 4.8125 -0.0625 4.5625 -0.03125 C 4.320312 -0.0078125 4.125 0 3.96875 0 Z M 2.203125 -6.578125 L 2.203125 -4.625 L 3.75 -4.625 C 4.125 -4.625 4.410156 -4.707031 4.609375 -4.875 C 4.816406 -5.050781 4.921875 -5.296875 4.921875 -5.609375 C 4.921875 -5.921875 4.828125 -6.148438 4.640625 -6.296875 C 4.421875 -6.484375 4.039062 -6.578125 3.5 -6.578125 Z M 2.203125 -3.40625 L 2.203125 -1.34375 L 3.78125 -1.34375 C 3.988281 -1.34375 4.207031 -1.359375 4.4375 -1.390625 C 4.675781 -1.421875 4.875 -1.507812 5.03125 -1.65625 C 5.125 -1.726562 5.195312 -1.828125 5.25 -1.953125 C 5.300781 -2.078125 5.328125 -2.234375 5.328125 -2.421875 C 5.328125 -2.734375 5.253906 -2.957031 5.109375 -3.09375 C 4.960938 -3.226562 4.785156 -3.3125 4.578125 -3.34375 C 4.367188 -3.382812 4.160156 -3.40625 3.953125 -3.40625 Z M 2.203125 -3.40625 "/></g></g></g></g></g><g fill="#f13223" fill-opacity="1"><g transform="translate(106.575238, 134.62729)"><g><path d="M 25.5625 -23.671875 L 15.3125 0 L 9.90625 0 L -0.296875 -23.671875 L 5.609375 -23.671875 L 12.8125 -6.765625 L 20.125 -23.671875 Z M 25.5625 -23.671875 "/></g></g></g><g fill="#f13223" fill-opacity="1"><g transform="translate(136.868858, 134.62729)"><g><path d="M 2.8125 -23.671875 L 8.28125 -23.671875 L 8.28125 0 L 2.8125 0 Z M 2.8125 -23.671875 "/></g></g></g><g fill="#f13223" fill-opacity="1"><g transform="translate(153.030512, 134.62729)"><g><path d="M 18.390625 -5.078125 L 7.40625 -5.078125 L 5.3125 0 L -0.296875 0 L 10.25 -23.671875 L 15.65625 -23.671875 L 26.234375 0 L 20.484375 0 Z M 16.671875 -9.234375 L 12.921875 -18.296875 L 9.15625 -9.234375 Z M 16.671875 -9.234375 "/></g></g></g><g fill="#ffffff" fill-opacity="1"><g transform="translate(184.001014, 134.62729)"><g><path d="M 7.703125 -19.203125 L 0.140625 -19.203125 L 0.140625 -23.671875 L 20.765625 -23.671875 L 20.765625 -19.203125 L 13.1875 -19.203125 L 13.1875 0 L 7.703125 0 Z M 7.703125 -19.203125 "/></g></g></g><g fill="#ffffff" fill-opacity="1"><g transform="translate(209.967142, 134.62729)"><g><path d="M 14.265625 0.40625 C 11.804688 0.40625 9.59375 -0.117188 7.625 -1.171875 C 5.65625 -2.234375 4.109375 -3.695312 2.984375 -5.5625 C 1.867188 -7.425781 1.3125 -9.515625 1.3125 -11.828125 C 1.3125 -14.148438 1.867188 -16.238281 2.984375 -18.09375 C 4.109375 -19.957031 5.65625 -21.421875 7.625 -22.484375 C 9.59375 -23.546875 11.804688 -24.078125 14.265625 -24.078125 C 16.722656 -24.078125 18.929688 -23.546875 20.890625 -22.484375 C 22.859375 -21.421875 24.40625 -19.957031 25.53125 -18.09375 C 26.65625 -16.238281 27.21875 -14.148438 27.21875 -11.828125 C 27.21875 -9.515625 26.65625 -7.425781 25.53125 -5.5625 C 24.40625 -3.695312 22.859375 -2.234375 20.890625 -1.171875 C 18.929688 -0.117188 16.722656 0.40625 14.265625 0.40625 Z M 14.265625 -4.265625 C 15.660156 -4.265625 16.921875 -4.582031 18.046875 -5.21875 C 19.179688 -5.863281 20.066406 -6.757812 20.703125 -7.90625 C 21.347656 -9.0625 21.671875 -10.367188 21.671875 -11.828125 C 21.671875 -13.296875 21.347656 -14.601562 20.703125 -15.75 C 20.066406 -16.90625 19.179688 -17.800781 18.046875 -18.4375 C 16.921875 -19.082031 15.660156 -19.40625 14.265625 -19.40625 C 12.867188 -19.40625 11.609375 -19.082031 10.484375 -18.4375 C 9.359375 -17.800781 8.472656 -16.90625 7.828125 -15.75 C 7.179688 -14.601562 6.859375 -13.296875 6.859375 -11.828125 C 6.859375 -10.367188 7.179688 -9.0625 7.828125 -7.90625 C 8.472656 -6.757812 9.359375 -5.863281 10.484375 -5.21875 C 11.609375 -4.582031 12.867188 -4.265625 14.265625 -4.265625 Z M 14.265625 -4.265625 "/></g></g></g><g fill="#ffffff" fill-opacity="1"><g transform="translate(243.573997, 134.62729)"><g><path d="M 17.890625 0 L 13.328125 -6.59375 L 8.28125 -6.59375 L 8.28125 0 L 2.8125 0 L 2.8125 -23.671875 L 13.046875 -23.671875 C 15.148438 -23.671875 16.972656 -23.320312 18.515625 -22.625 C 20.054688 -21.925781 21.242188 -20.929688 22.078125 -19.640625 C 22.910156 -18.359375 23.328125 -16.835938 23.328125 -15.078125 C 23.328125 -13.316406 22.90625 -11.800781 22.0625 -10.53125 C 21.21875 -9.257812 20.019531 -8.285156 18.46875 -7.609375 L 23.765625 0 Z M 17.78125 -15.078125 C 17.78125 -16.410156 17.351562 -17.429688 16.5 -18.140625 C 15.644531 -18.847656 14.394531 -19.203125 12.75 -19.203125 L 8.28125 -19.203125 L 8.28125 -10.953125 L 12.75 -10.953125 C 14.394531 -10.953125 15.644531 -11.3125 16.5 -12.03125 C 17.351562 -12.757812 17.78125 -13.773438 17.78125 -15.078125 Z M 17.78125 -15.078125 "/></g></g></g></svg>